<svg viewBox="0 0 1024 1024" xmlns="http://www.w3.org/2000/svg">
  <circle cx="512" cy="512" r="512" fill="#2d3748"/>
  <path d="M512 70.7c-243.6 0-441.3 197.7-441.3 441.3 0 194.9 126.4 360.2 301.9 418.6 22.1 4.1 30.2-9.6 30.2-21.3 0-10.5-.4-38.2-.6-75-122.8 26.7-148.7-59.2-148.7-59.2-20.1-51-49.1-64.6-49.1-64.6-40.1-27.4 3-26.8 3-26.8 44.4 3.1 67.7 45.6 67.7 45.6 39.4 67.5 103.4 48 128.5 36.7 4-28.5 15.4-48 28-59-98.1-11.2-201.2-49.1-201.2-218.3 0-48.2 17.2-87.6 45.6-118.4-4.6-11.2-19.8-56.2 4.3-117.1 0 0 37.2-11.9 121.8 45.2 35.3-9.8 73.2-14.7 110.8-14.9 37.6.2 75.5 5.1 110.8 14.9 84.6-57.1 121.8-45.2 121.8-45.2 24.1 60.9 8.9 105.9 4.3 117.1 28.4 30.8 45.6 70.2 45.6 118.4 0 169.8-103.3 207-201.7 218 15.8 13.6 30 40.6 30 81.8 0 59.1-.5 106.7-.5 121.3 0 11.8 8 25.6 30.4 21.2C884.9 872.1 1011.3 706.9 1011.3 512c0-243.6-197.7-441.3-441.3-441.3z" fill="white"/>
</svg>
